<svg width="120" height="120" viewBox="0 0 120 120" fill="none" xmlns="http://www.w3.org/2000/svg">
<g filter="url(#filter0_d_18_220)">
<rect x="30" y="22" width="60" height="60" rx="20" fill="#6810AC"/>
</g>
<path d="M42.2727 36.3182H52.7046C54.549 36.3182 56.3179 37.0509 57.6222 38.3552C58.9264 39.6594 59.6591 41.4283 59.6591 43.2728V67.6137C59.6591 66.2303 59.1096 64.9037 58.1314 63.9255C57.1532 62.9473 55.8265 62.3978 54.4432 62.3978H42.2727V36.3182Z" stroke="white" stroke-width="6" stroke-linecap="round" stroke-linejoin="round"/>
<path d="M77.0455 36.3182H66.6136C64.7692 36.3182 63.0003 37.0509 61.696 38.3552C60.3918 39.6594 59.6591 41.4283 59.6591 43.2728V67.6137C59.6591 66.2303 60.2086 64.9037 61.1868 63.9255C62.165 62.9473 63.4917 62.3978 64.875 62.3978H77.0455V36.3182Z" stroke="white" stroke-width="6" stroke-linecap="round" stroke-linejoin="round"/>
<defs>
<filter id="filter0_d_18_220" x="0" y="0" width="120" height="120" filterUnits="userSpaceOnUse" color-interpolation-filters="sRGB">
<feFlood flood-opacity="0" result="BackgroundImageFix"/>
<feColorMatrix in="SourceAlpha" type="matrix" values="0 0 0 0 0 0 0 0 0 0 0 0 0 0 0 0 0 0 127 0" result="hardAlpha"/>
<feOffset dy="8"/>
<feGaussianBlur stdDeviation="15"/>
<feComposite in2="hardAlpha" operator="out"/>
<feColorMatrix type="matrix" values="0 0 0 0 0.407843 0 0 0 0 0.0627451 0 0 0 0 0.67451 0 0 0 0.38 0"/>
<feBlend mode="normal" in2="BackgroundImageFix" result="effect1_dropShadow_18_220"/>
<feBlend mode="normal" in="SourceGraphic" in2="effect1_dropShadow_18_220" result="shape"/>
</filter>
</defs>
</svg>
