<svg width="120" height="120" viewBox="0 0 120 120" fill="none" xmlns="http://www.w3.org/2000/svg">
<g filter="url(#filter0_d_18_227)">
<rect x="30" y="22" width="60" height="60" rx="20" fill="#AC105B"/>
</g>
<path d="M60 34.2727V69.2727" stroke="white" stroke-width="6" stroke-linecap="round" stroke-linejoin="round"/>
<path d="M67.9545 40.6364H56.0227C54.546 40.6364 53.1297 41.223 52.0854 42.2672C51.0412 43.3115 50.4545 44.7278 50.4545 46.2045C50.4545 47.6813 51.0412 49.0976 52.0854 50.1418C53.1297 51.1861 54.546 51.7727 56.0227 51.7727H63.9773C65.454 51.7727 66.8703 52.3594 67.9146 53.4036C68.9588 54.4478 69.5455 55.8641 69.5455 57.3409C69.5455 58.8177 68.9588 60.234 67.9146 61.2782C66.8703 62.3224 65.454 62.9091 63.9773 62.9091H50.4545" stroke="white" stroke-width="6" stroke-linecap="round" stroke-linejoin="round"/>
<defs>
<filter id="filter0_d_18_227" x="0" y="0" width="120" height="120" filterUnits="userSpaceOnUse" color-interpolation-filters="sRGB">
<feFlood flood-opacity="0" result="BackgroundImageFix"/>
<feColorMatrix in="SourceAlpha" type="matrix" values="0 0 0 0 0 0 0 0 0 0 0 0 0 0 0 0 0 0 127 0" result="hardAlpha"/>
<feOffset dy="8"/>
<feGaussianBlur stdDeviation="15"/>
<feComposite in2="hardAlpha" operator="out"/>
<feColorMatrix type="matrix" values="0 0 0 0 0.67451 0 0 0 0 0.0627451 0 0 0 0 0.356863 0 0 0 0.38 0"/>
<feBlend mode="normal" in2="BackgroundImageFix" result="effect1_dropShadow_18_227"/>
<feBlend mode="normal" in="SourceGraphic" in2="effect1_dropShadow_18_227" result="shape"/>
</filter>
</defs>
</svg>
